<?xml version="1.0" encoding="utf-8"?>
<?xml-stylesheet type="text/xsl" href="rss1.xsl"?>
<rss version="2.0" xmlns:atom="http://www.w3.org/2005/Atom" xmlns:content="http://purl.org/rss/1.0/modules/content/" xmlns:dc="http://purl.org/dc/elements/1.1/" xmlns:media="http://search.yahoo.com/mrss/">
<channel>
 <title>Getty</title>
 <link>http://www.gettyimg.com/</link>
 <atom:link href="http://www.gettyimg.com/" rel="self" type="application/rss+xml" />

 
                <item>
                <title><![CDATA[【Singles (lossless)】FLAC - Jung Kook - Seven (feat. Latto) (Explicit Ver.) (Hi-Res 24bits/96kHz FLAC)]]></title>
                <link><![CDATA[https://sharemania.us/threads/jung-kook-seven-feat-latto-explicit-ver-hi-res-24bits-96khz-flac.224510/]]></link>
                <description><![CDATA[<article>
<blockquote class="messageText SelectQuoteContainer ugc baseHtml">
<img src="https://is1-ssl.mzstatic.com/image/thumb/Music126/v4/a5/a6/56/a5a6561a-f570-2fb1-5a3a-95b150c18f18/196922550928_Cover.jpg/1400x1400.jpg" class="bbCodeImage LbImage" alt="[​IMG]" data-url="https://is1-ssl.mzstatic.com/image/thumb/Music126/v4/a5/a6/56/a5a6561a-f570-2fb1-5a3a-95b150c18f18/196922550928_Cover.jpg/1400x1400.jpg" style=""> <br>
Jung Kook - Seven (feat. Latto) (Explicit Ver.) (Hi-Res 24bits/96kHz FLAC)<br>
Download Link:<br>
<div class="bbCodeBlock bbCodeVfcHH HiddenContent">
<div class="attribution type">Hidden Content:</div>
<blockquote>You must either reply or click 'Like' to see the hidden information contained here.</blockquote>
</div>
<div class="messageTextEndMarker">&nbsp;</div>
</blockquote>
</article>]]></description>
                <author><![CDATA[ctkyoontay]]></author>
                </item>

                
                <item>
                <title><![CDATA[【Apple Music】WEB-RiP - Taylor Swift - I Can See You (Taylor’s Version) (From The Vault) (1080p)]]></title>
                <link><![CDATA[https://sharemania.us/threads/taylor-swift-i-can-see-you-taylor%E2%80%99s-version-from-the-vault-1080p.224509/]]></link>
                <description><![CDATA[<article>
<blockquote class="messageText SelectQuoteContainer ugc baseHtml">
<img src="https://i.imgur.com/MDbzBJ4.jpg" class="bbCodeImage LbImage" alt="[​IMG]" data-url="https://i.imgur.com/MDbzBJ4.jpg" style=""><br>
<br>
<div class="bbCodeBlock bbCodeCode">
<div class="type">Code:</div>
<pre>General
Complete name                  : C:\Users\asus\Desktop\Taylor Swift - I Can See You (Taylor’s Version) (From The Vault).mp4
Format                         : MPEG-4
Format profile                 : Base Media
Codec ID                       : isom (isom/iso2/avc1/mp41)
File size                      : 260 MiB
Duration                       : 5 min 6 s
Overall bit rate               : 7 102 kb/s
Frame rate                     : 23.976 FPS
Movie name                     : I Can See You (Taylor’s Version) (From The Vault)
Performer                      : Taylor Swift
Genre                          : Country
ContentType                    : Music Video
Recorded date                  : 2023-07-08 07:00:00 UTC
Writing application            : Lavf57.29.101
Copyright                      : ℗ 2023 Taylor Swift

Video
ID                             : 1
Format                         : AVC
Format/Info                    : Advanced Video Codec
Format profile                 : High@L4
Format settings                : CABAC / 5 Ref Frames
Format settings, CABAC         : Yes
Format settings, Reference fra : 5 frames
Codec ID                       : avc1
Codec ID/Info                  : Advanced Video Coding
Duration                       : 5 min 6 s
Bit rate                       : 6 830 kb/s
Width                          : 1 920 pixels
Height                         : 800 pixels
Display aspect ratio           : 2.40:1
Frame rate mode                : Constant
Frame rate                     : 23.976 (24000/1001) FPS
Color space                    : YUV
Chroma subsampling             : 4:2:0
Bit depth                      : 8 bits
Scan type                      : Progressive
Bits/(Pixel*Frame)             : 0.185
Stream size                    : 250 MiB (96%)
Language                       : English
Color range                    : Limited
Color primaries                : BT.709
Transfer characteristics       : BT.709
Matrix coefficients            : BT.709
Codec configuration box        : avcC

Audio
ID                             : 2
Format                         : AAC LC
Format/Info                    : Advanced Audio Codec Low Complexity
Codec ID                       : mp4a-40-2
Duration                       : 5 min 6 s
Duration_LastFrame             : -14 ms
Bit rate mode                  : Constant
Bit rate                       : 265 kb/s
Channel(s)                     : 2 channels
Channel layout                 : L R
Sampling rate                  : 48.0 kHz
Frame rate                     : 46.875 FPS (1024 SPF)
Compression mode               : Lossy
Stream size                    : 9.77 MiB (4%)
Default                        : Yes
Alternate group                : 1

</pre>
</div>
<div class="bbCodeBlock bbCodeVfcHH HiddenContent">
<div class="attribution type">Hidden Content:</div>
<blockquote>You must either reply or click 'Like' to see the hidden information contained here.</blockquote>
</div>
<div class="messageTextEndMarker">&nbsp;</div>
</blockquote>
</article>]]></description>
                <author><![CDATA[vitalya3]]></author>
                </item>

                </channel></rss>